<?xml version="1.0" standalone="no"?>
<!DOCTYPE svg PUBLIC "-//W3C//DTD SVG 20010904//EN"
 "http://www.w3.org/TR/2001/REC-SVG-20010904/DTD/svg10.dtd">
<svg version="1.0" xmlns="http://www.w3.org/2000/svg"
 width="1024.000000pt" height="1024.000000pt" viewBox="0 0 1024.000000 1024.000000"
 preserveAspectRatio="xMidYMid meet">

<g transform="translate(0.000000,1024.000000) scale(0.100000,-0.100000)"
fill="#000000" stroke="none">
<path d="M5005 9424 c-11 -2 -51 -11 -88 -20 -259 -59 -492 -248 -603 -489
-65 -141 -76 -203 -81 -461 l-5 -232 -57 -4 c-96 -7 -167 -55 -214 -142 -21
-39 -22 -52 -22 -306 l0 -265 -230 -127 c-127 -70 -238 -137 -247 -149 -17
-20 -18 -74 -18 -829 0 -803 0 -807 21 -834 18 -23 345 -226 415 -258 23 -11
24 -14 24 -128 l0 -117 -63 -5 c-107 -9 -198 -73 -248 -176 -35 -71 -34 -196
3 -274 37 -79 84 -119 292 -254 246 -158 246 -158 336 -159 74 0 109 10 170
50 25 17 28 16 121 -41 l96 -57 0 -74 c1 -99 42 -186 115 -243 82 -66 119 -72
420 -68 295 3 313 7 396 83 64 57 95 130 96 226 l2 80 92 55 92 55 31 -22 c65
-46 159 -60 242 -35 61 18 431 254 484 308 97 100 127 254 70 370 -52 105
-160 178 -264 178 l-43 0 0 118 0 119 173 101 c238 140 235 138 257 174 19 32
20 52 20 826 0 672 -2 797 -14 821 -12 22 -73 58 -283 168 -147 78 -301 157
-340 177 -40 20 -73 40 -73 45 0 4 28 59 62 122 50 92 63 125 66 170 8 106
-33 174 -136 223 l-60 29 -5 281 c-3 253 -6 288 -25 351 -94 301 -340 539
-637 616 -77 20 -293 35 -340 23z m214 -315 c97 -16 214 -75 288 -142 118
-110 172 -228 179 -392 2 -55 6 -136 8 -180 l4 -80 -264 133 c-234 117 -270
132 -315 132 -61 0 -116 -27 -156 -74 -15 -19 -62 -94 -103 -166 l-75 -132
-65 6 c-36 3 -89 6 -117 6 l-53 0 0 216 c0 204 1 220 25 291 67 197 219 332
430 378 76 17 131 18 214 4z m373 -916 c446 -227 467 -240 459 -283 -4 -22
-402 -740 -459 -827 -14 -22 -229 -153 -344 -209 l-57 -27 -123 62 c-401 205
-654 335 -658 338 -6 5 -6 5 346 613 161 278 302 517 314 533 13 17 31 27 47
27 14 0 228 -102 475 -227z m-1151 -570 c-5 -10 -45 -80 -88 -156 -73 -127
-83 -139 -133 -170 -45 -26 -56 -37 -58 -63 -2 -17 3 -35 10 -41 14 -11 480
-253 796 -413 169 -86 186 -92 230 -88 38 4 109 40 391 201 189 108 350 202
357 208 23 19 17 65 -12 88 -15 12 -32 21 -38 21 -6 0 -17 4 -25 9 -11 7 2 36
59 135 l73 126 106 -56 c58 -31 179 -95 269 -141 120 -63 162 -89 162 -103 0
-12 -24 -32 -77 -60 -148 -81 -669 -373 -877 -492 -244 -140 -419 -228 -453
-228 -13 0 -102 40 -196 89 -322 166 -1277 683 -1277 691 1 3 58 37 127 75 70
39 235 134 366 213 223 133 288 171 295 172 1 0 -2 -8 -7 -17z m1102 -1290
c-4 -10 -53 -121 -111 -248 -57 -126 -105 -241 -106 -255 l-1 -25 135 -3 c74
-1 138 -6 143 -11 4 -4 -63 -75 -150 -157 -87 -82 -240 -227 -341 -324 -101
-96 -190 -179 -197 -183 -19 -10 -5 28 80 218 88 197 107 252 95 275 -8 15
-28 18 -145 22 -74 2 -138 7 -141 11 -13 12 712 697 738 697 4 0 4 -8 1 -17z
m-1113 -1339 c184 -105 395 -224 467 -265 l132 -74 1 -107 0 -108 -70 0 c-90
0 -170 -29 -230 -86 l-45 -42 -85 53 -85 52 3 79 c3 63 -1 91 -19 138 -32 88
-89 141 -265 251 l-154 96 0 105 c0 58 3 104 8 102 4 -1 158 -89 342 -194z
m1716 -9 c-2 -6 -74 -55 -159 -108 -231 -145 -272 -200 -272 -368 l1 -96 -75
-44 c-41 -24 -79 -46 -83 -47 -4 -2 -29 15 -54 37 -62 54 -136 81 -225 81
l-70 0 3 107 3 106 435 248 c239 136 449 256 465 267 l30 19 3 -95 c1 -53 1
-101 -2 -107z m-2170 -163 c202 -123 323 -204 338 -227 19 -29 23 -76 4 -57
-22 22 -75 14 -97 -14 -28 -36 -26 -76 5 -113 l26 -31 -30 0 c-21 0 -75 30
-178 96 -82 53 -173 112 -201 131 -62 39 -83 68 -90 121 -7 49 19 107 56 127
46 25 83 18 167 -33z m2464 21 c55 -49 58 -147 7 -197 -12 -12 -108 -76 -214
-144 -135 -86 -201 -122 -222 -122 l-29 0 29 29 c37 38 39 82 4 116 -28 29
-70 32 -97 8 -17 -15 -18 -15 -18 6 0 49 29 78 152 153 68 41 161 98 207 126
99 61 135 66 181 25z m-1078 -609 l30 -16 -49 -22 c-76 -36 -94 -96 -44 -147
33 -32 70 -37 111 -14 14 8 28 14 33 15 14 0 -22 -58 -49 -79 -25 -20 -38 -21
-274 -21 -236 0 -249 1 -274 21 -27 21 -63 79 -49 79 5 -1 19 -7 33 -15 37
-21 65 -18 99 11 56 47 36 119 -43 154 l-41 18 35 16 c52 23 437 23 482 0z"/>
<path d="M5568 7910 c-9 -6 -104 -85 -210 -176 l-193 -165 -63 70 c-52 58 -70
71 -94 71 -43 0 -65 -15 -79 -57 -11 -35 -10 -41 52 -161 112 -219 114 -222
154 -222 45 0 58 12 325 299 130 139 219 243 224 262 7 24 5 35 -11 57 -22 29
-74 40 -105 22z"/>
<path d="M3150 3221 c-98 -22 -174 -89 -206 -182 -17 -47 -19 -84 -19 -289 0
-258 5 -287 58 -366 23 -36 48 -57 91 -79 55 -28 67 -30 165 -30 96 0 111 3
157 27 85 45 139 126 151 228 l6 50 -90 0 -90 0 -7 -40 c-4 -23 -18 -54 -35
-72 -27 -30 -34 -33 -89 -33 -67 0 -95 17 -118 72 -20 47 -20 440 0 488 27 64
134 88 191 43 30 -24 55 -74 55 -113 0 -25 0 -25 91 -25 l92 0 -7 56 c-13 115
-73 202 -168 244 -51 22 -172 34 -228 21z"/>
<path d="M7943 3220 c-93 -20 -165 -77 -205 -165 -22 -48 -23 -60 -23 -310 0
-252 1 -262 23 -306 30 -60 82 -112 141 -141 39 -20 62 -23 156 -23 127 0 176
16 240 80 76 77 80 96 80 390 l0 260 -28 57 c-33 68 -91 121 -156 143 -57 19
-172 27 -228 15z m168 -177 c56 -33 60 -59 57 -312 -3 -228 -3 -230 -27 -255
-51 -54 -143 -58 -200 -10 -44 36 -54 102 -49 313 4 193 15 238 67 266 36 20
117 19 152 -2z"/>
<path d="M940 2750 l0 -470 255 0 255 0 0 80 0 80 -160 0 -160 0 0 115 0 115
140 0 140 0 0 81 0 80 -140 -3 -140 -3 0 113 0 112 155 0 155 0 0 85 0 85
-250 0 -250 0 0 -470z"/>
<path d="M1620 2750 l0 -470 240 0 240 0 0 80 0 80 -150 0 -150 0 0 390 0 390
-90 0 -90 0 0 -470z"/>
<path d="M2260 2750 l0 -470 258 0 257 0 0 80 0 80 -162 0 -163 0 0 115 0 115
140 0 140 0 0 81 0 81 -140 -4 -140 -3 0 113 0 112 160 0 160 0 0 85 0 85
-255 0 -255 0 0 -470z"/>
<path d="M3640 3135 l0 -85 105 0 105 0 0 -385 0 -385 90 0 90 0 0 385 0 385
105 0 105 0 0 85 0 85 -300 0 -300 0 0 -85z"/>
<path d="M4380 2750 l0 -470 95 0 95 0 0 165 0 165 48 0 48 0 63 -165 64 -165
98 0 c55 0 99 2 99 4 0 2 -34 84 -75 181 l-75 177 49 44 c65 58 81 106 81 239
0 91 -3 107 -27 156 -59 114 -130 139 -401 139 l-162 0 0 -470z m377 276 c25
-21 28 -31 31 -97 2 -47 -2 -83 -10 -99 -20 -38 -73 -60 -145 -60 l-63 0 0
140 0 140 79 0 c70 0 83 -3 108 -24z"/>
<path d="M5120 3043 c43 -98 101 -229 129 -292 l51 -115 0 -178 0 -178 95 0
95 0 0 179 0 179 125 287 c69 158 125 289 125 292 0 2 -43 2 -97 1 l-96 -3
-69 -185 c-37 -102 -71 -192 -74 -200 -8 -22 -11 -14 -89 203 l-68 187 -102 0
-103 0 78 -177z"/>
<path d="M5890 2751 l0 -471 93 0 92 0 0 152 0 153 107 5 c92 5 114 10 164 36
104 53 142 144 131 312 -10 139 -56 212 -163 259 -31 13 -78 18 -231 21 l-193
4 0 -471z m353 288 c14 -6 30 -22 36 -36 14 -31 14 -178 0 -205 -16 -30 -70
-48 -144 -48 l-65 0 0 150 0 150 75 0 c41 0 85 -5 98 -11z"/>
<path d="M6590 3135 l0 -85 100 0 100 0 0 -385 0 -385 95 0 95 0 -2 385 -3
385 103 0 102 0 0 85 0 85 -295 0 -295 0 0 -85z"/>
<path d="M7338 2750 l-3 -470 93 0 92 0 0 470 0 470 -90 0 -90 0 -2 -470z"/>
<path d="M8550 2750 l0 -470 85 0 85 0 2 299 3 299 145 -299 145 -299 87 0 88
0 0 470 0 470 -87 0 -88 0 3 -292 c1 -161 0 -289 -3 -286 -5 5 -152 306 -239
491 l-41 87 -92 0 -93 0 0 -470z"/>
<path d="M1303 1831 c-23 -14 -34 -30 -39 -56 -9 -50 15 -81 92 -115 54 -25
64 -33 64 -54 0 -48 -57 -60 -96 -21 -29 29 -64 33 -64 8 1 -64 124 -99 183
-53 61 48 40 124 -45 160 -53 22 -88 46 -88 61 0 34 77 52 100 24 14 -16 60
-21 60 -6 0 6 -10 22 -23 36 -31 37 -99 44 -144 16z"/>
<path d="M1904 1840 c-12 -4 -31 -21 -43 -36 -18 -23 -21 -40 -21 -124 0 -94
1 -99 29 -129 25 -27 36 -31 80 -31 42 0 56 5 80 28 16 15 32 37 36 50 5 19 3
22 -19 22 -15 0 -30 -8 -36 -20 -22 -42 -70 -48 -105 -14 -24 24 -21 175 3
197 31 28 102 15 102 -18 0 -10 10 -15 30 -15 35 0 35 1 14 41 -24 47 -96 71
-150 49z"/>
<path d="M4604 1840 c-31 -12 -54 -49 -54 -86 0 -39 35 -72 103 -98 47 -17 63
-40 51 -70 -14 -35 -104 -28 -104 9 0 10 -10 15 -29 15 -29 0 -30 -1 -19 -30
15 -43 44 -60 106 -60 68 0 102 29 102 88 0 47 -23 70 -97 102 -55 23 -74 50
-53 75 16 19 64 19 83 1 14 -15 52 -25 57 -16 2 3 0 15 -4 28 -14 42 -88 64
-142 42z"/>
<path d="M1568 1680 l3 -160 89 0 c89 0 90 0 90 25 0 24 -2 25 -65 25 l-65 0
0 45 0 45 59 0 c57 0 58 1 53 25 -4 23 -9 25 -61 25 l-56 0 1 42 1 43 67 3
c58 3 66 5 66 22 0 18 -7 20 -92 20 l-93 0 3 -160z"/>
<path d="M2160 1726 c0 -62 5 -127 11 -145 27 -78 172 -82 207 -6 7 15 12 74
12 145 l0 120 -25 0 -25 0 0 -119 c0 -95 -3 -123 -16 -135 -24 -25 -68 -24
-96 1 -15 14 -18 34 -18 135 l0 118 -25 0 -25 0 0 -114z"/>
<path d="M2490 1680 l0 -160 25 0 c24 0 25 3 25 60 l0 60 33 0 c30 0 34 -4 56
-60 21 -53 27 -60 52 -60 l28 0 -25 61 -25 61 22 24 c17 18 23 37 23 75 1 44
-3 54 -27 75 -25 21 -38 24 -108 24 l-79 0 0 -160z m145 106 c22 -16 25 -74 4
-87 -8 -5 -33 -9 -56 -9 l-43 0 0 48 c0 27 3 52 7 55 11 12 68 8 88 -7z"/>
<path d="M2800 1680 l0 -160 95 0 c95 0 95 0 95 25 0 24 -2 25 -70 25 l-70 0
0 45 0 45 60 0 c57 0 60 1 60 25 0 24 -3 25 -60 25 l-60 0 0 45 0 45 70 0 c63
0 70 2 70 20 0 19 -7 20 -95 20 l-95 0 0 -160z"/>
<path d="M3310 1820 c0 -17 7 -20 40 -20 l40 0 0 -140 0 -140 25 0 25 0 0 140
0 140 45 0 c38 0 45 3 45 20 0 19 -7 20 -110 20 -103 0 -110 -1 -110 -20z"/>
<path d="M3618 1680 l3 -160 26 0 c25 0 25 1 21 60 l-4 60 32 0 c30 0 34 -4
56 -60 20 -53 26 -60 50 -60 16 0 28 2 28 4 0 2 -12 29 -26 60 l-26 56 26 31
c30 35 34 84 11 128 -19 37 -31 41 -123 41 l-77 0 3 -160z m140 104 c24 -16
28 -44 12 -75 -8 -15 -21 -19 -58 -19 l-47 0 2 52 c1 29 2 54 2 56 3 9 71 -1
89 -14z"/>
<path d="M3946 1693 c-27 -82 -51 -154 -54 -161 -3 -10 3 -13 23 -10 21 2 30
11 39 38 11 34 13 35 68 38 l57 3 12 -41 c10 -34 16 -40 39 -40 l27 0 -51 160
-51 160 -30 0 c-30 0 -31 0 -79 -147z m114 -40 c0 -8 -15 -13 -41 -13 -29 0
-40 4 -36 13 2 6 12 39 22 72 l17 60 19 -60 c10 -33 19 -66 19 -72z"/>
<path d="M4230 1680 c0 -152 1 -160 20 -160 18 0 20 8 22 123 l3 122 64 -122
c59 -114 66 -123 92 -123 l29 0 0 160 0 160 -25 0 -25 0 -1 -117 0 -118 -60
118 c-56 110 -61 117 -89 117 l-30 0 0 -160z"/>
<path d="M4850 1680 l0 -160 25 0 c24 0 25 3 25 55 l0 55 49 0 c39 0 56 6 80
26 28 23 31 32 31 80 0 45 -4 59 -25 79 -22 22 -32 25 -105 25 l-80 0 0 -160z
m138 104 c15 -10 22 -25 22 -48 0 -43 -16 -56 -67 -56 l-43 0 0 60 0 60 33 0
c18 0 43 -7 55 -16z"/>
<path d="M5151 1688 c-28 -84 -51 -156 -51 -161 0 -4 11 -7 25 -7 20 0 26 7
35 40 l11 40 58 0 58 0 12 -40 c10 -33 16 -40 36 -40 14 0 25 3 25 8 0 4 -22
75 -48 157 -47 149 -48 150 -79 153 l-31 3 -51 -153z m101 24 c10 -31 18 -60
18 -64 0 -5 -19 -8 -41 -8 -38 0 -41 2 -35 23 4 12 12 43 18 69 6 27 14 46 17
43 3 -3 13 -31 23 -63z"/>
<path d="M5440 1680 l0 -160 25 0 c24 0 25 3 25 60 l0 60 31 0 c28 0 33 -5 56
-60 21 -49 31 -60 50 -60 29 0 29 8 -1 70 l-24 51 24 24 c35 35 34 115 -1 150
-22 22 -32 25 -105 25 l-80 0 0 -160z m144 104 c19 -18 21 -65 4 -82 -7 -7
-31 -12 -55 -12 l-43 0 0 55 0 55 39 0 c23 0 46 -7 55 -16z"/>
<path d="M5750 1680 l0 -160 95 0 c95 0 95 0 95 25 0 24 -2 25 -70 25 l-70 0
0 45 0 45 60 0 c57 0 60 1 60 25 0 24 -3 25 -60 25 l-60 0 0 45 0 45 70 0 c63
0 70 2 70 20 0 19 -7 20 -95 20 l-95 0 0 -160z"/>
<path d="M6020 1680 l0 -160 25 0 25 0 0 123 0 122 64 -120 c54 -101 68 -120
89 -123 l26 -3 3 160 c3 161 3 161 -19 161 -22 0 -22 -4 -25 -117 l-3 -118
-60 118 c-58 113 -61 117 -92 117 l-33 0 0 -160z"/>
<path d="M6340 1820 c0 -17 7 -20 40 -20 l40 0 0 -140 0 -140 25 0 25 0 0 140
0 140 43 0 c36 0 43 3 43 20 0 19 -7 20 -108 20 -101 0 -108 -1 -108 -20z"/>
<path d="M6920 1680 l0 -160 25 0 c24 0 25 2 25 70 l0 70 60 0 c53 0 60 2 60
20 0 18 -7 20 -60 20 l-60 0 0 50 0 50 68 0 c61 0 68 2 68 20 0 19 -7 20 -93
20 l-93 0 0 -160z"/>
<path d="M7190 1720 c0 -71 5 -130 12 -145 33 -73 173 -73 206 0 7 15 12 74
12 145 l0 120 -25 0 -25 0 0 -119 c0 -117 -1 -120 -26 -140 -15 -12 -32 -21
-39 -21 -7 0 -24 9 -39 21 -25 20 -26 23 -26 140 l0 119 -25 0 -25 0 0 -120z"/>
<path d="M7510 1820 c0 -17 7 -20 40 -20 l40 0 0 -140 0 -140 25 0 25 0 0 140
0 140 40 0 c33 0 40 3 40 20 0 19 -7 20 -105 20 -98 0 -105 -1 -105 -20z"/>
<path d="M7810 1720 c0 -71 5 -130 12 -145 33 -73 173 -73 206 0 7 15 12 74
12 145 l0 120 -25 0 -25 0 0 -118 c0 -84 -4 -124 -14 -137 -17 -24 -69 -24
-96 0 -18 16 -20 31 -20 137 l0 118 -25 0 -25 0 0 -120z"/>
<path d="M8140 1680 l0 -160 25 0 c24 0 25 3 25 60 l0 60 30 0 c28 0 33 -6 57
-60 21 -49 30 -60 49 -60 30 0 30 5 0 72 l-24 54 24 21 c20 18 24 31 24 77 0
47 -4 57 -26 75 -22 17 -41 21 -105 21 l-79 0 0 -160z m141 110 c22 -12 27
-68 7 -88 -7 -7 -31 -12 -55 -12 l-43 0 0 55 0 55 36 0 c19 0 44 -5 55 -10z"/>
<path d="M8450 1680 l0 -160 95 0 c95 0 95 0 95 25 0 24 -2 25 -70 25 l-70 0
0 45 0 45 60 0 c57 0 60 1 60 25 0 24 -3 25 -60 25 l-60 0 0 45 0 45 70 0 c63
0 70 2 70 20 0 19 -7 20 -95 20 l-95 0 0 -160z"/>
<path d="M3080 1575 c-17 -21 -8 -50 17 -53 30 -4 49 31 27 52 -19 20 -28 20
-44 1z"/>
<path d="M6620 1575 c-19 -23 -8 -50 20 -50 19 0 26 6 28 24 5 35 -26 53 -48
26z"/>
<path d="M8731 1576 c-17 -20 -4 -56 18 -56 28 0 47 28 34 48 -14 23 -37 26
-52 8z"/>
</g>
</svg>
