<svg width="64" height="64" viewBox="0 0 64 64" fill="none" xmlns="http://www.w3.org/2000/svg">
  <!-- Background with gradient -->
  <defs>
    <linearGradient id="bgGrad" x1="0%" y1="0%" x2="100%" y2="100%">
      <stop offset="0%" style="stop-color:#1E40AF;stop-opacity:1" />
      <stop offset="50%" style="stop-color:#3B82F6;stop-opacity:1" />
      <stop offset="100%" style="stop-color:#1D4ED8;stop-opacity:1" />
    </linearGradient>
  </defs>

  <!-- Main background -->
  <rect width="64" height="64" rx="12" fill="url(#bgGrad)"/>

  <!-- Central ballot box -->
  <g transform="translate(32,32)">
    <!-- Ballot box -->
    <rect x="-14" y="-8" width="28" height="18" rx="3" fill="white" stroke="#E2E8F0"/>
    <rect x="-14" y="-8" width="28" height="4" rx="3" fill="#F1F5F9"/>

    <!-- Ballot slot -->
    <rect x="-10" y="-10" width="20" height="2" rx="1" fill="#374151"/>

    <!-- Voting paper -->
    <rect x="-8" y="-13" width="16" height="5" rx="1" fill="white" stroke="#D1D5DB"/>

    <!-- Checkmark -->
    <path d="M-4,-11 L-2,-9 L4,-14" stroke="#10B981" stroke-width="1.5" stroke-linecap="round" fill="none"/>

    <!-- Security lock -->
    <g transform="translate(10,0)">
      <rect x="-1.5" y="0" width="3" height="3" rx="0.5" fill="#10B981"/>
      <path d="M-1,-1.5 Q-1,-2.5 0,-2.5 Q1,-2.5 1,-1.5" stroke="#10B981" stroke-width="0.8" fill="none"/>
    </g>
  </g>

  <!-- Chain links (simplified) -->
  <g>
    <!-- Top-left -->
    <g transform="translate(18,18) rotate(-30)">
      <rect x="-3" y="-1.5" width="6" height="3" rx="1.5" fill="none" stroke="#FBBF24" stroke-width="1.2"/>
      <rect x="-1.5" y="-3" width="3" height="6" rx="1.5" fill="none" stroke="#FBBF24" stroke-width="1.2"/>
    </g>

    <!-- Bottom-right -->
    <g transform="translate(46,46) rotate(-30)">
      <rect x="-3" y="-1.5" width="6" height="3" rx="1.5" fill="none" stroke="#FBBF24" stroke-width="1.2"/>
      <rect x="-1.5" y="-3" width="3" height="6" rx="1.5" fill="none" stroke="#FBBF24" stroke-width="1.2"/>
    </g>
  </g>

  <!-- Network nodes -->
  <circle cx="14" cy="14" r="2" fill="#FBBF24"/>
  <circle cx="50" cy="50" r="2" fill="#FBBF24"/>

  <!-- Security shield -->
  <g transform="translate(32,16)">
    <path d="M0,-2 L2,-1 L2,2 L0,3 L-2,2 L-2,-1 Z" fill="#10B981"/>
    <path d="M-1,0 L0,1 L1,-1" stroke="white" stroke-width="0.8" stroke-linecap="round" fill="none"/>
  </g>
</svg>
